<svg width="321" height="321" xmlns="http://www.w3.org/2000/svg" xmlns:xlink="http://www.w3.org/1999/xlink" xml:space="preserve" overflow="hidden"><defs><clipPath id="clip0"><rect x="128" y="1134" width="321" height="321"/></clipPath></defs><g clip-path="url(#clip0)" transform="translate(-128 -1134)"><path d="M430.944 1255.38 413.556 1249.03 413.556 1212.58 430.944 1205.22 313.244 1161.75 170.131 1211.91C156.422 1218.6 156.087 1236.99 156.087 1252.03 156.087 1257.05 156.756 1262.07 157.759 1266.75 146.391 1274.1 146.056 1291.16 146.056 1305.53 146.056 1317.24 148.731 1327.94 156.087 1334.62 154.416 1340.31 155.419 1347.33 155.419 1355.69 155.419 1370.74 159.431 1384.45 172.806 1389.13L265.763 1427.58 430.275 1359.37 412.887 1353.02 412.887 1316.23 430.275 1308.88 403.525 1298.85 403.525 1266.75 430.944 1255.38ZM174.144 1235.32 267.1 1271.76 400.516 1217.93 400.516 1246.68 267.1 1302.19 174.144 1265.41 174.144 1235.32ZM399.847 1350.68 266.431 1405.85 173.141 1369.07 173.141 1342.98 256.4 1377.09 400.181 1320.25 399.847 1350.68ZM390.484 1300.52 257.069 1355.69 164.113 1318.91 164.113 1288.82 259.744 1326.93 390.819 1272.1 390.819 1300.52Z"/></g></svg>