<svg width="378" height="378" xmlns="http://www.w3.org/2000/svg" xmlns:xlink="http://www.w3.org/1999/xlink" xml:space="preserve" overflow="hidden"><defs><clipPath id="clip0"><rect x="658" y="1736" width="378" height="378"/></clipPath></defs><g clip-path="url(#clip0)" transform="translate(-658 -1736)"><path d="M984.419 1889.96C983.237 1889.96 982.056 1889.96 980.875 1889.96L970.638 1862.39C994.263 1849.01 1002.53 1819.08 989.537 1795.46 976.15 1771.83 946.225 1763.56 922.6 1776.56 911.181 1782.86 902.519 1793.88 899.369 1806.48L862.75 1802.54C859.994 1785.22 843.85 1773.01 826.525 1775.77 810.775 1778.13 799.356 1791.52 799.356 1807.27 799.356 1812.78 800.931 1818.29 803.688 1823.41L759.588 1866.72C751.319 1860.43 741.081 1856.88 730.45 1856.88 703.281 1856.88 681.231 1878.93 681.231 1906.1 681.231 1933.27 703.281 1955.32 730.45 1955.32L740.294 2014.38C724.15 2021.47 716.669 2040.37 723.756 2056.51 730.844 2072.66 749.744 2080.14 765.888 2073.05 780.85 2066.75 788.331 2050.21 784 2034.46L818.65 2016.35C841.094 2041.16 879.681 2043.12 904.881 2020.68 917.481 2009.26 924.963 1992.72 924.963 1975.79 924.963 1971.46 924.569 1966.74 923.388 1962.41L961.581 1942.72C973.394 1956.11 993.475 1957.29 1006.86 1945.47 1020.25 1933.66 1021.43 1913.58 1009.62 1900.19 1002.14 1893.89 993.475 1889.96 984.419 1889.96L984.419 1889.96ZM984.419 1901.77C989.537 1901.77 993.475 1905.71 993.475 1910.82 993.475 1915.94 989.537 1919.88 984.419 1919.88 979.3 1919.88 975.362 1915.94 975.362 1910.82 975.362 1910.82 975.362 1910.82 975.362 1910.82 975.362 1905.71 979.3 1901.77 984.419 1901.77L984.419 1901.77ZM946.619 1789.55C954.1 1789.55 960.4 1795.85 960.4 1803.33 960.4 1810.81 954.1 1817.11 946.619 1817.11 939.138 1817.11 932.838 1810.81 932.838 1803.33 932.838 1803.33 932.838 1803.33 932.838 1803.33 932.838 1795.85 938.744 1789.55 946.619 1789.55ZM918.662 1834.44C918.662 1832.47 919.844 1830.11 921.419 1828.93 925.356 1826.17 930.081 1823.81 934.806 1822.62 938.35 1821.44 942.287 1821.05 946.225 1821.05 950.162 1821.05 954.1 1821.84 957.644 1822.62 962.369 1823.81 967.094 1826.17 971.031 1829.32 972.606 1830.5 973.787 1832.86 973.787 1834.83L973.787 1845.46 918.662 1845.46 918.662 1834.44ZM830.856 1787.19C835.975 1787.19 839.912 1791.12 839.912 1796.24 839.912 1801.36 835.975 1805.3 830.856 1805.3 825.737 1805.3 821.8 1801.36 821.8 1796.24 821.8 1796.24 821.8 1796.24 821.8 1796.24 821.8 1791.52 825.737 1787.19 830.856 1787.19L830.856 1787.19ZM812.35 1816.72C812.35 1815.14 813.138 1813.96 814.319 1813.18 817.075 1811.21 820.225 1810.03 823.375 1809.24 825.737 1808.45 828.494 1808.06 830.856 1808.06 833.219 1808.06 835.975 1808.45 838.338 1809.24 841.487 1810.03 844.244 1811.6 847 1813.57 848.181 1814.36 848.969 1815.93 848.969 1817.11L848.969 1824.2 812.744 1824.2 812.744 1816.72ZM729.662 1876.18C737.144 1876.18 743.444 1882.47 743.444 1889.96 743.444 1897.44 737.144 1903.74 729.662 1903.74 722.181 1903.74 715.881 1897.44 715.881 1889.96 715.881 1889.96 715.881 1889.96 715.881 1889.96 716.275 1882.47 722.181 1876.18 729.662 1876.18L729.662 1876.18ZM702.1 1931.69 702.1 1921.06C702.1 1919.09 703.281 1916.73 704.856 1915.55 708.794 1912.79 713.519 1910.43 718.244 1909.25 721.787 1908.07 725.725 1907.68 729.662 1907.68 733.6 1907.68 737.537 1908.46 741.081 1909.25 745.806 1910.43 750.531 1912.79 754.469 1915.94 756.044 1917.12 757.225 1919.49 757.225 1921.46L757.225 1932.09 702.1 1931.69ZM770.219 2060.06 733.6 2060.06 733.6 2052.97C733.6 2051.39 734.388 2050.21 735.569 2049.43 738.325 2047.46 741.475 2045.88 744.625 2045.09 746.987 2044.31 749.744 2043.91 752.106 2043.91 754.469 2043.91 757.225 2044.31 759.588 2045.09 762.737 2045.88 765.494 2047.46 768.25 2049.43 769.431 2050.21 770.219 2051.79 770.219 2052.97L770.219 2060.06ZM742.656 2032.49C742.656 2027.38 746.594 2023.44 751.713 2023.44 756.831 2023.44 760.769 2027.38 760.769 2032.49 760.769 2037.61 756.831 2041.55 751.713 2041.55 746.987 2041.94 743.05 2037.61 742.656 2032.49L742.656 2032.49ZM774.156 2021.47C769.037 2016.35 761.95 2013.2 754.862 2012.41L745.019 1953.35C754.469 1950.2 762.737 1944.29 768.644 1936.42L805.263 1955.71C799.356 1971.46 800.537 1989.18 808.412 2004.14L774.156 2021.47ZM812.744 1941.14 776.519 1922.24C778.094 1917.12 778.881 1912.01 778.881 1906.49 778.881 1896.26 775.731 1886.41 769.825 1878.14L813.925 1835.22C828.888 1844.28 848.575 1839.95 857.631 1824.99 858.812 1823.02 859.6 1821.05 860.388 1819.08L897.006 1823.02C897.794 1837.19 904.881 1850.58 916.3 1859.24L884.013 1919.49C858.419 1909.25 828.888 1918.31 812.744 1941.14L812.744 1941.14ZM879.681 1955.71C879.681 1965.16 871.806 1972.64 862.356 1972.64 852.906 1972.64 845.425 1965.16 845.425 1955.71 845.425 1946.26 852.906 1938.78 862.356 1938.78 862.356 1938.78 862.356 1938.78 862.75 1938.78 872.2 1938.78 879.681 1946.26 879.681 1955.71L879.681 1955.71ZM896.612 2007.29 828.494 2007.29 828.494 1994.3C828.494 1991.54 829.675 1989.18 832.037 1987.61 837.156 1984.06 842.669 1981.31 848.575 1979.34 853.3 1978.16 858.025 1977.37 862.75 1977.37 867.475 1977.37 872.2 1978.16 876.925 1979.34 882.831 1980.91 888.737 1983.67 893.463 1987.61 895.431 1989.18 897.006 1991.94 897.006 1994.3L896.612 2007.29ZM952.525 1922.24C952.525 1924.61 952.919 1926.97 953.706 1929.33L917.481 1948.23C913.15 1939.57 906.456 1932.48 898.581 1926.97L930.869 1866.72C935.987 1868.69 941.5 1869.48 947.013 1869.48 950.162 1869.48 953.312 1869.09 956.463 1868.69L966.7 1896.26C957.25 1901.77 952.131 1911.61 952.525 1922.24ZM1002.53 1937.99 965.912 1937.99 965.912 1930.91C965.912 1929.33 966.7 1928.15 967.881 1927.36 970.638 1925.39 973.787 1923.82 976.938 1923.03 979.3 1922.24 982.056 1921.85 984.419 1921.85 986.781 1921.85 989.537 1922.24 991.9 1923.03 995.05 1923.82 997.806 1925.39 1000.56 1927.36 1001.74 1928.15 1002.53 1929.72 1002.53 1930.91L1002.53 1937.99Z"/></g></svg>