<svg width="254" height="253" xmlns="http://www.w3.org/2000/svg" xmlns:xlink="http://www.w3.org/1999/xlink" xml:space="preserve" overflow="hidden"><defs><clipPath id="clip0"><rect x="1129" y="296" width="254" height="253"/></clipPath></defs><g clip-path="url(#clip0)" transform="translate(-1129 -296)"><path d="M43.4844 218.213C41.6396 220.057 39.2677 220.584 36.8958 219.53 34.524 218.476 33.2063 216.368 33.2063 213.996 33.2063 211.624 34.7875 209.252 36.8958 208.461 39.2677 207.407 41.6396 207.934 43.4844 209.779 45.8563 211.888 45.8563 215.841 43.4844 218.213ZM229.545 44.5385 208.198 65.8854 191.331 61.4052 187.115 44.8021 208.461 23.4552C195.811 18.7115 181.58 21.6104 171.566 30.5708 161.551 39.7948 157.598 53.499 161.024 66.676L26.6177 201.082C21.874 205.562 20.0292 212.415 21.6104 218.74 23.1917 225.065 28.199 230.072 34.524 231.653 40.849 233.234 47.4375 231.39 52.1812 226.646L186.588 92.2396C199.765 95.6656 213.469 91.7125 222.693 81.6979 231.653 71.6833 234.552 57.1885 229.545 44.5385Z" transform="matrix(1.00395 0 0 1 1129 296)"/><path d="M228.491 201.082 160.497 133.089 133.089 160.497 198.974 226.382 201.346 228.754 201.609 228.491C209.252 234.025 219.794 232.971 226.382 226.382 232.971 219.53 233.761 208.989 228.491 201.082L228.491 201.082Z" transform="matrix(1.00395 0 0 1 1129 296)"/><path d="M59.5604 52.1812 59.824 51.9177 52.9719 39.2677 30.3073 21.0833 21.0833 30.3073 39.2677 52.9719 51.9177 59.824 52.1812 59.5604 102.518 109.897 109.897 102.518Z" transform="matrix(1.00395 0 0 1 1129 296)"/></g></svg>