<svg width="299" height="299" xmlns="http://www.w3.org/2000/svg" xmlns:xlink="http://www.w3.org/1999/xlink" xml:space="preserve" overflow="hidden"><defs><clipPath id="clip0"><rect x="830" y="248" width="299" height="299"/></clipPath></defs><g clip-path="url(#clip0)" transform="translate(-830 -248)"><path d="M995.073 269.802C995.073 274.962 990.89 279.146 985.729 279.146 980.569 279.146 976.385 274.962 976.385 269.802 976.385 264.642 980.569 260.458 985.729 260.458 990.89 260.458 995.073 264.642 995.073 269.802Z"/><path d="M1010.65 297.833C1010.65 302.994 1006.46 307.177 1001.3 307.177 996.142 307.177 991.958 302.994 991.958 297.833 991.958 292.673 996.142 288.49 1001.3 288.49 1006.46 288.49 1010.65 292.673 1010.65 297.833Z"/><path d="M976.385 291.604C976.385 296.765 972.202 300.948 967.042 300.948 961.881 300.948 957.698 296.765 957.698 291.604 957.698 286.444 961.881 282.26 967.042 282.26 972.202 282.26 976.385 286.444 976.385 291.604Z"/><path d="M985.729 325.865C985.729 332.745 980.151 338.323 973.271 338.323 966.39 338.323 960.812 332.745 960.812 325.865 960.812 318.984 966.39 313.406 973.271 313.406 980.151 313.406 985.729 318.984 985.729 325.865Z"/><path d="M1040.23 508.379 1004.42 427.4 1004.42 372.583C1004.42 361.371 1013.45 356.699 1013.76 356.388 1016.88 354.83 1018.12 351.093 1016.56 347.978 1015.32 345.798 1013.14 344.552 1010.65 344.552L1010.65 344.552 948.354 344.552 948.354 344.552C945.862 344.552 943.682 345.798 942.436 347.978 940.879 351.093 942.125 354.83 945.24 356.388 945.24 356.388 954.583 361.371 954.583 372.583L954.583 427.4 918.766 508.379C916.274 514.297 916.897 520.838 920.323 526.132 923.749 531.427 929.667 534.542 935.896 534.542L1023.1 534.542C1029.33 534.542 1035.25 531.427 1038.68 526.132 1042.1 520.838 1042.73 514.297 1040.23 508.379ZM991.958 372.583 991.958 385.042 967.042 385.042 967.042 372.583C967.042 366.043 965.173 361.059 962.993 357.01L996.319 357.01C993.827 361.059 991.958 366.043 991.958 372.583Z"/></g></svg>